<?xml version="1.0" encoding="UTF-8"?>
<svg xmlns="http://www.w3.org/2000/svg" xmlns:xlink="http://www.w3.org/1999/xlink" width="111.89pt" height="58.57pt" viewBox="0 0 111.89 58.57" version="1.2">
<defs>
<clipPath id="clip1">
  <path d="M 0.351562 0 L 59 0 L 59 58.144531 L 0.351562 58.144531 Z M 0.351562 0 "/>
</clipPath>
<clipPath id="clip2">
  <path d="M 96 38 L 111.425781 38 L 111.425781 58 L 96 58 Z M 96 38 "/>
</clipPath>
</defs>
<g id="surface1">
<g clip-path="url(#clip1)" clip-rule="nonzero">
<path style=" stroke:none;fill-rule:nonzero;fill:rgb(65.951538%,69.395447%,70.103455%);fill-opacity:1;" d="M 45.074219 0.00390625 L 58.488281 58.144531 L 0.351562 58.144531 Z M 45.074219 0.00390625 "/>
</g>
<path style=" stroke:none;fill-rule:nonzero;fill:rgb(13.729858%,12.159729%,12.548828%);fill-opacity:1;" d="M 61.683594 38.753906 L 64.667969 38.753906 L 71.429688 54.179688 L 71.476562 54.179688 L 71.476562 38.753906 L 73.671875 38.753906 L 73.671875 57.914062 L 70.859375 57.914062 L 63.921875 42.160156 L 63.878906 42.160156 L 63.878906 57.914062 L 61.683594 57.914062 L 61.683594 38.753906 "/>
<path style=" stroke:none;fill-rule:nonzero;fill:rgb(13.729858%,12.159729%,12.548828%);fill-opacity:1;" d="M 77.140625 38.753906 L 79.335938 38.753906 L 79.335938 57.914062 L 77.140625 57.914062 L 77.140625 38.753906 "/>
<path style=" stroke:none;fill-rule:nonzero;fill:rgb(13.729858%,12.159729%,12.548828%);fill-opacity:1;" d="M 82.804688 38.753906 L 85.789062 38.753906 L 92.550781 54.179688 L 92.597656 54.179688 L 92.597656 38.753906 L 94.789062 38.753906 L 94.789062 57.914062 L 91.980469 57.914062 L 85.042969 42.160156 L 85 42.160156 L 85 57.914062 L 82.804688 57.914062 L 82.804688 38.753906 "/>
<g clip-path="url(#clip2)" clip-rule="nonzero">
<path style=" stroke:none;fill-rule:nonzero;fill:rgb(13.729858%,12.159729%,12.548828%);fill-opacity:1;" d="M 96.109375 57.914062 L 98.414062 57.914062 L 99.976562 53.082031 L 107.484375 53.082031 L 109.039062 57.914062 L 111.433594 57.914062 L 104.957031 38.753906 L 102.652344 38.753906 Z M 106.78125 50.828125 L 100.675781 50.828125 L 103.730469 41.335938 Z M 106.78125 50.828125 "/>
</g>
<path style=" stroke:none;fill-rule:nonzero;fill:rgb(48.678589%,82.168579%,81.044006%);fill-opacity:1;" d="M 14.46875 26.480469 C 14.695312 31.34375 16.011719 35.835938 19.710938 39.160156 C 25.582031 44.429688 34.328125 44.496094 40.4375 39.128906 C 45.539062 34.648438 47.035156 27.453125 44.460938 21.449219 C 50.898438 27.683594 52.058594 37.929688 48.414062 46.394531 C 46.464844 50.917969 42.632812 53.78125 38.101562 55.039062 C 32.789062 56.515625 27.390625 55.027344 23.289062 51.78125 C 15.582031 45.683594 12.910156 35.355469 14.511719 25.808594 C 14.457031 26.1875 14.457031 26.1875 14.46875 26.480469 "/>
<path style="fill:none;stroke-width:3;stroke-linecap:butt;stroke-linejoin:miter;stroke:rgb(8.8974%,8.72345%,8.299255%);stroke-opacity:1;stroke-miterlimit:4;" d="M 142.192462 318.951211 C 144.47472 269.961354 157.735429 224.709679 194.9992 191.223439 C 254.141172 138.141256 342.244216 137.472318 403.786495 191.538233 C 455.176658 236.671861 470.247434 309.15324 444.316256 369.633088 C 509.163874 306.831632 520.850611 203.618463 484.13773 118.348567 C 464.502438 72.782097 425.900792 43.939073 380.255624 31.268604 C 326.740599 16.394575 272.35989 31.386652 231.043143 64.085906 C 153.407008 125.510136 126.492098 229.54964 142.625304 325.719288 C 142.074414 321.902407 142.074414 321.902407 142.192462 318.951211 Z M 142.192462 318.951211 " transform="matrix(0.0992712,0,0,-0.0992712,0.353136,58.143134)"/>
<path style=" stroke:none;fill-rule:nonzero;fill:rgb(97.201538%,65.507507%,28.379822%);fill-opacity:1;" d="M 34.433594 34.707031 C 38.523438 35.578125 42.550781 32.941406 43.425781 28.820312 C 44.300781 24.699219 41.695312 20.65625 37.605469 19.785156 C 33.519531 18.917969 29.492188 21.550781 28.621094 25.671875 C 27.742188 29.789062 30.347656 33.835938 34.433594 34.707031 "/>
<path style="fill:none;stroke-width:3;stroke-linecap:butt;stroke-linejoin:miter;stroke:rgb(8.8974%,8.72345%,8.299255%);stroke-opacity:1;stroke-miterlimit:4;" d="M 343.306647 236.081621 C 384.505346 227.306731 425.074457 253.867497 433.888696 295.380991 C 442.702936 336.894484 416.456964 377.620992 375.258265 386.395882 C 334.098915 395.131423 293.529804 368.610006 284.754914 327.096513 C 275.901325 285.622369 302.147297 244.856511 343.306647 236.081621 Z M 343.306647 236.081621 " transform="matrix(0.0992712,0,0,-0.0992712,0.353136,58.143134)"/>
</g>
</svg>
